<svg width="507" height="507" viewBox="0 0 507 507" fill="none" xmlns="http://www.w3.org/2000/svg">
<path d="M507 253.488C507 393.484 393.503 507 253.5 507C113.497 507 0 393.484 0 253.488C0 113.492 106.975 6.61995 241.359 0.268706C245.39 0.0977114 249.445 0 253.5 0C257.555 0 261.61 0.0732835 265.641 0.268706C400.001 6.61995 507 117.547 507 253.488Z" fill="#61DAFB"/>
<path d="M253.409 502.369C390.782 502.369 502.146 391.006 502.146 253.632C502.146 116.259 390.782 4.89526 253.409 4.89526C116.035 4.89526 4.67188 116.259 4.67188 253.632C4.67188 391.006 116.035 502.369 253.409 502.369Z" fill="#282C34"/>
<path d="M253.409 468.091C371.851 468.091 467.867 372.074 467.867 253.632C467.867 135.19 371.851 39.1736 253.409 39.1736C134.967 39.1736 38.9502 135.19 38.9502 253.632C38.9502 372.074 134.967 468.091 253.409 468.091Z" fill="#61DAFB"/>
<path d="M256.252 256.475L445.006 336.977C434.851 360.34 420.231 382.237 401.122 401.346C382.013 420.455 360.116 435.075 336.753 445.23L256.252 256.475Z" fill="#282C34" stroke="#61DAFB" stroke-width="3"/>
<path d="M170.063 445.23C146.7 435.075 124.803 420.455 105.694 401.346C86.5851 382.237 71.9657 360.34 61.8106 336.977L250.565 256.475L170.063 445.23Z" fill="#282C34" stroke="#61DAFB" stroke-width="3"/>
<path d="M61.8106 170.287C71.9657 146.924 86.5851 125.027 105.694 105.918C124.803 86.8091 146.7 72.1897 170.063 62.0346L250.565 250.789L61.8106 170.287Z" fill="#282C34" stroke="#61DAFB" stroke-width="3"/>
<path d="M336.753 62.0346C360.116 72.1897 382.013 86.8091 401.122 105.918C420.231 125.027 434.851 146.924 445.006 170.287L256.252 250.789L336.753 62.0346Z" fill="#282C34" stroke="#61DAFB" stroke-width="3"/>
<path d="M257.256 253.632L446.211 173.045C456.594 197.837 462.326 225.063 462.326 253.632C462.326 282.201 456.594 309.427 446.211 334.219L257.256 253.632Z" fill="#1780C9" stroke="#61DAFB" stroke-width="3"/>
<path d="M44.4912 253.632C44.4912 225.059 50.2237 197.83 60.6096 173.037L249.561 253.632L60.606 334.219C50.2223 309.427 44.4912 282.201 44.4912 253.632Z" fill="#1780C9" stroke="#61DAFB" stroke-width="3"/>
<path d="M253.408 249.784L172.821 60.8296C197.613 50.446 224.839 44.7148 253.408 44.7148C281.98 44.7148 309.21 50.4473 334.003 60.8333L253.408 249.784Z" fill="#1780C9" stroke="#61DAFB" stroke-width="3"/>
<path d="M253.408 462.525C224.839 462.525 197.613 456.794 172.821 446.41L253.408 257.456L333.995 446.41C309.203 456.794 281.977 462.525 253.408 462.525Z" fill="#1780C9" stroke="#61DAFB" stroke-width="3"/>
<path style="mix-blend-mode:multiply" d="M253.408 464.049C369.619 464.049 463.826 369.842 463.826 253.632C463.826 137.422 369.619 43.2148 253.408 43.2148C137.198 43.2148 42.9912 137.422 42.9912 253.632C42.9912 369.842 137.198 464.049 253.408 464.049Z" fill="url(#paint0_radial_16_94)"/>
<g style="mix-blend-mode:overlay">
<path d="M254.351 80.1116L284.52 164.938C285.91 168.846 290.374 170.695 294.12 168.915L375.444 130.264C376.294 129.86 377.181 130.746 376.777 131.596L338.126 212.921C336.345 216.667 338.195 221.131 342.103 222.521L426.929 252.69C427.816 253.005 427.816 254.259 426.929 254.574L342.103 284.744C338.195 286.133 336.345 290.597 338.126 294.344L376.777 375.668C377.181 376.518 376.294 377.404 375.444 377L294.12 338.35C290.374 336.569 285.91 338.418 284.52 342.326L254.351 427.153C254.035 428.039 252.782 428.039 252.466 427.153L222.297 342.326C220.907 338.418 216.443 336.569 212.697 338.35L131.373 377C130.523 377.404 129.636 376.518 130.04 375.668L168.691 294.344C170.471 290.597 168.622 286.133 164.714 284.744L79.8879 254.574C79.0014 254.259 79.0014 253.005 79.8879 252.69L164.714 222.521C168.622 221.131 170.471 216.667 168.691 212.921L130.04 131.596C129.636 130.746 130.523 129.86 131.373 130.264L212.697 168.915C216.443 170.695 220.907 168.846 222.297 164.938L252.466 80.1115C252.782 79.225 254.035 79.225 254.351 80.1116Z" stroke="#61DAFB" stroke-width="6"/>
</g>
<g style="mix-blend-mode:screen">
<path d="M247.755 211.654C249.647 206.335 257.169 206.335 259.061 211.654L262.258 220.639C263.449 223.989 267.276 225.574 270.487 224.047L279.088 219.957C284.188 217.532 289.508 222.852 287.083 227.952L282.993 236.553C281.467 239.764 283.051 243.591 286.401 244.783L295.387 247.979C300.705 249.871 300.705 257.393 295.387 259.285L286.401 262.482C283.051 263.673 281.467 267.5 282.993 270.711L287.083 279.312C289.508 284.412 284.188 289.733 279.088 287.308L270.487 283.218C267.276 281.691 263.449 283.275 262.258 286.625L259.061 295.611C257.169 300.929 249.647 300.929 247.755 295.611L244.558 286.625C243.367 283.275 239.54 281.691 236.329 283.218L227.728 287.308C222.628 289.733 217.308 284.412 219.733 279.312L223.823 270.711C225.35 267.5 223.765 263.673 220.415 262.482L211.429 259.285C206.111 257.393 206.111 249.871 211.429 247.979L220.415 244.783C223.765 243.591 225.35 239.764 223.823 236.553L219.733 227.952C217.308 222.852 222.628 217.532 227.728 219.957L236.329 224.047C239.54 225.574 243.367 223.989 244.558 220.639L247.755 211.654Z" fill="#54E9FD"/>
</g>
<path d="M273.27 270.449C282.545 259.486 281.176 243.08 270.213 233.806C259.25 224.531 242.844 225.9 233.569 236.863C224.295 247.826 225.664 264.232 236.627 273.507C247.59 282.781 263.996 281.412 273.27 270.449Z" fill="url(#paint1_radial_16_94)"/>
<defs>
<radialGradient id="paint0_radial_16_94" cx="0" cy="0" r="1" gradientUnits="userSpaceOnUse" gradientTransform="translate(253.408 253.632) scale(210.417)">
<stop offset="0.81" stop-color="white"/>
<stop offset="0.87" stop-color="#FCFCFD"/>
<stop offset="0.91" stop-color="#F3F4F6"/>
<stop offset="0.94" stop-color="#E9ECF0"/>
<stop offset="0.97" stop-color="#B9C3CE"/>
<stop offset="1" stop-color="#899BAD"/>
</radialGradient>
<radialGradient id="paint1_radial_16_94" cx="0" cy="0" r="1" gradientUnits="userSpaceOnUse" gradientTransform="translate(253.001 254) rotate(135) scale(50.9117 50.9117)">
<stop offset="0.28" stop-color="#6FEDFD"/>
<stop offset="1" stop-color="#000604"/>
</radialGradient>
</defs>
</svg>
